<svg width="93" height="50" viewBox="0 0 93 50" fill="none" xmlns="http://www.w3.org/2000/svg">
<g filter="url(#filter0_d)">
<path d="M18.6016 22H15.0859L8.24219 10.7734V22H4.72656V4.9375H8.24219L15.0977 16.1875V4.9375H18.6016V22ZM20.9219 15.543C20.9219 14.2852 21.1641 13.1641 21.6484 12.1797C22.1328 11.1953 22.8281 10.4336 23.7344 9.89453C24.6484 9.35547 25.707 9.08594 26.9102 9.08594C28.6211 9.08594 30.0156 9.60938 31.0938 10.6562C32.1797 11.7031 32.7852 13.125 32.9102 14.9219L32.9336 15.7891C32.9336 17.7344 32.3906 19.2969 31.3047 20.4766C30.2188 21.6484 28.7617 22.2344 26.9336 22.2344C25.1055 22.2344 23.6445 21.6484 22.5508 20.4766C21.4648 19.3047 20.9219 17.7109 20.9219 15.6953V15.543ZM24.3086 15.7891C24.3086 16.9922 24.5352 17.9141 24.9883 18.5547C25.4414 19.1875 26.0898 19.5039 26.9336 19.5039C27.7539 19.5039 28.3945 19.1914 28.8555 18.5664C29.3164 17.9336 29.5469 16.9258 29.5469 15.543C29.5469 14.3633 29.3164 13.4492 28.8555 12.8008C28.3945 12.1523 27.7461 11.8281 26.9102 11.8281C26.082 11.8281 25.4414 12.1523 24.9883 12.8008C24.5352 13.4414 24.3086 14.4375 24.3086 15.7891ZM34.4922 15.5664C34.4922 13.5898 34.9336 12.0156 35.8164 10.8438C36.707 9.67188 37.9219 9.08594 39.4609 9.08594C40.6953 9.08594 41.7148 9.54688 42.5195 10.4688V4H45.918V22H42.8594L42.6953 20.6523C41.8516 21.707 40.7656 22.2344 39.4375 22.2344C37.9453 22.2344 36.7461 21.6484 35.8398 20.4766C34.9414 19.2969 34.4922 17.6602 34.4922 15.5664ZM37.8789 15.8125C37.8789 17 38.0859 17.9102 38.5 18.543C38.9141 19.1758 39.5156 19.4922 40.3047 19.4922C41.3516 19.4922 42.0898 19.0508 42.5195 18.168V13.1641C42.0977 12.2812 41.3672 11.8398 40.3281 11.8398C38.6953 11.8398 37.8789 13.1641 37.8789 15.8125ZM54.3789 22.2344C52.5195 22.2344 51.0039 21.6641 49.832 20.5234C48.668 19.3828 48.0859 17.8633 48.0859 15.9648V15.6367C48.0859 14.3633 48.332 13.2266 48.8242 12.2266C49.3164 11.2188 50.0117 10.4453 50.9102 9.90625C51.8164 9.35938 52.8477 9.08594 54.0039 9.08594C55.7383 9.08594 57.1016 9.63281 58.0938 10.7266C59.0938 11.8203 59.5938 13.3711 59.5938 15.3789V16.7617H51.5195C51.6289 17.5898 51.957 18.2539 52.5039 18.7539C53.0586 19.2539 53.7578 19.5039 54.6016 19.5039C55.9062 19.5039 56.9258 19.0312 57.6602 18.0859L59.3242 19.9492C58.8164 20.668 58.1289 21.2305 57.2617 21.6367C56.3945 22.0352 55.4336 22.2344 54.3789 22.2344ZM53.9922 11.8281C53.3203 11.8281 52.7734 12.0547 52.3516 12.5078C51.9375 12.9609 51.6719 13.6094 51.5547 14.4531H56.2656V14.1836C56.25 13.4336 56.0469 12.8555 55.6562 12.4492C55.2656 12.0352 54.7109 11.8281 53.9922 11.8281ZM61.7031 20.3359C61.7031 19.7969 61.8828 19.3594 62.2422 19.0234C62.6094 18.6875 63.0664 18.5195 63.6133 18.5195C64.168 18.5195 64.625 18.6875 64.9844 19.0234C65.3516 19.3594 65.5352 19.7969 65.5352 20.3359C65.5352 20.8672 65.3555 21.3008 64.9961 21.6367C64.6367 21.9648 64.1758 22.1289 63.6133 22.1289C63.0586 22.1289 62.6016 21.9648 62.2422 21.6367C61.8828 21.3008 61.7031 20.8672 61.7031 20.3359ZM72.0977 9.32031V22.6914C72.0977 24.0898 71.7266 25.1758 70.9844 25.9492C70.2422 26.7305 69.1719 27.1211 67.7734 27.1211C67.1875 27.1211 66.6289 27.0547 66.0977 26.9219V24.2383C66.5039 24.3086 66.8594 24.3438 67.1641 24.3438C68.1875 24.3438 68.6992 23.8008 68.6992 22.7148V9.32031H72.0977ZM68.4297 6.03906C68.4297 5.53125 68.5977 5.11328 68.9336 4.78516C69.2773 4.45703 69.7422 4.29297 70.3281 4.29297C70.9141 4.29297 71.375 4.45703 71.7109 4.78516C72.0547 5.11328 72.2266 5.53125 72.2266 6.03906C72.2266 6.55469 72.0508 6.97656 71.6992 7.30469C71.3555 7.63281 70.8984 7.79688 70.3281 7.79688C69.7578 7.79688 69.2969 7.63281 68.9453 7.30469C68.6016 6.97656 68.4297 6.55469 68.4297 6.03906ZM81.6133 18.4961C81.6133 18.082 81.4062 17.7578 80.9922 17.5234C80.5859 17.2812 79.9297 17.0664 79.0234 16.8789C76.0078 16.2461 74.5 14.9648 74.5 13.0352C74.5 11.9102 74.9648 10.9727 75.8945 10.2227C76.832 9.46484 78.0547 9.08594 79.5625 9.08594C81.1719 9.08594 82.457 9.46484 83.418 10.2227C84.3867 10.9805 84.8711 11.9648 84.8711 13.1758H81.4844C81.4844 12.6914 81.3281 12.293 81.0156 11.9805C80.7031 11.6602 80.2148 11.5 79.5508 11.5C78.9805 11.5 78.5391 11.6289 78.2266 11.8867C77.9141 12.1445 77.7578 12.4727 77.7578 12.8711C77.7578 13.2461 77.9336 13.5508 78.2852 13.7852C78.6445 14.0117 79.2461 14.2109 80.0898 14.3828C80.9336 14.5469 81.6445 14.7344 82.2227 14.9453C84.0117 15.6016 84.9062 16.7383 84.9062 18.3555C84.9062 19.5117 84.4102 20.4492 83.418 21.168C82.4258 21.8789 81.1445 22.2344 79.5742 22.2344C78.5117 22.2344 77.5664 22.0469 76.7383 21.6719C75.918 21.2891 75.2734 20.7695 74.8047 20.1133C74.3359 19.4492 74.1016 18.7344 74.1016 17.9688H77.3125C77.3438 18.5703 77.5664 19.0312 77.9805 19.3516C78.3945 19.6719 78.9492 19.832 79.6445 19.832C80.293 19.832 80.7812 19.7109 81.1094 19.4688C81.4453 19.2188 81.6133 18.8945 81.6133 18.4961ZM28.1858 27.662C28.6898 27.662 29.3478 27.7367 30.1598 27.886L30.1318 28.936C29.3665 28.7867 28.7178 28.712 28.1858 28.712C27.6445 28.712 27.2525 28.8193 27.0098 29.034C26.7765 29.2487 26.6598 29.5753 26.6598 30.014V30.378C26.6598 30.6113 26.6878 30.798 26.7438 30.938C26.8092 31.0687 26.9212 31.1853 27.0798 31.288C27.2385 31.3813 27.4765 31.4793 27.7938 31.582L29.0958 32.016C29.7212 32.2307 30.1598 32.5153 30.4118 32.87C30.6732 33.2247 30.8038 33.7427 30.8038 34.424V34.69C30.8038 35.5207 30.5612 36.1413 30.0758 36.552C29.5998 36.9627 28.8158 37.168 27.7238 37.168C27.1918 37.168 26.5105 37.0747 25.6798 36.888L25.7078 35.81C26.4825 35.9967 27.1452 36.09 27.6958 36.09C28.3958 36.09 28.8905 35.9873 29.1798 35.782C29.4692 35.5673 29.6138 35.236 29.6138 34.788V34.326C29.6138 33.9993 29.5392 33.752 29.3898 33.584C29.2498 33.4067 28.9978 33.2573 28.6338 33.136L27.1918 32.66C26.5478 32.4453 26.0998 32.17 25.8478 31.834C25.5958 31.4887 25.4698 30.9707 25.4698 30.28V30.126C25.4698 29.314 25.6845 28.7027 26.1138 28.292C26.5525 27.872 27.2432 27.662 28.1858 27.662ZM33.673 30.168H35.493V31.148H33.673V35.152C33.673 35.5067 33.743 35.7633 33.883 35.922C34.0323 36.0713 34.261 36.146 34.569 36.146C34.961 36.146 35.3436 36.0993 35.717 36.006L35.745 37C35.3343 37.112 34.961 37.168 34.625 37.168C33.8783 37.168 33.3323 37.0047 32.987 36.678C32.651 36.342 32.483 35.8007 32.483 35.054V31.148H31.503V30.168H32.483L32.707 28.348H33.673V30.168ZM41.7634 37H40.6434V36.02C40.3914 36.3933 40.1114 36.678 39.8034 36.874C39.4954 37.07 39.1688 37.168 38.8234 37.168C38.2541 37.168 37.8061 36.972 37.4794 36.58C37.1621 36.1787 37.0034 35.5953 37.0034 34.83V30.168H38.1934V34.62C38.1934 35.1147 38.2681 35.4787 38.4174 35.712C38.5761 35.9453 38.7908 36.062 39.0614 36.062C39.3134 36.062 39.5748 35.964 39.8454 35.768C40.1254 35.5627 40.3681 35.2827 40.5734 34.928V30.168H41.7634V37ZM48.434 37H47.3V35.894C46.74 36.7433 46.1007 37.168 45.382 37.168C44.8033 37.168 44.36 36.972 44.052 36.58C43.744 36.1787 43.59 35.5953 43.59 34.83V32.338C43.59 31.6007 43.758 31.0267 44.094 30.616C44.4393 30.2053 44.9293 30 45.564 30C45.8347 30 46.1193 30.07 46.418 30.21C46.7167 30.3407 46.992 30.504 47.244 30.7V27.438H48.434V37ZM45.83 31.064C45.494 31.064 45.2327 31.1853 45.046 31.428C44.8687 31.6613 44.78 32.0207 44.78 32.506V34.676C44.78 35.628 45.074 36.104 45.662 36.104C45.942 36.104 46.2173 35.9967 46.488 35.782C46.768 35.558 47.02 35.2453 47.244 34.844V31.764C47.048 31.5587 46.8147 31.3907 46.544 31.26C46.2827 31.1293 46.0447 31.064 45.83 31.064ZM51.5782 30.168V37H50.3882V30.168H51.5782ZM50.9762 27.41C51.2282 27.41 51.4195 27.466 51.5502 27.578C51.6902 27.69 51.7602 27.8487 51.7602 28.054V28.46C51.7602 28.6653 51.6902 28.824 51.5502 28.936C51.4195 29.0387 51.2282 29.09 50.9762 29.09C50.7335 29.09 50.5422 29.0387 50.4022 28.936C50.2715 28.824 50.2062 28.6653 50.2062 28.46V28.054C50.2062 27.8487 50.2715 27.69 50.4022 27.578C50.5422 27.466 50.7335 27.41 50.9762 27.41ZM55.7727 30C56.5567 30 57.1541 30.2147 57.5647 30.644C57.9754 31.0733 58.1807 31.694 58.1807 32.506V33.948H54.5827V34.774C54.5827 35.25 54.6947 35.5953 54.9187 35.81C55.1521 36.0153 55.5161 36.118 56.0107 36.118C56.4961 36.118 57.1027 36.0433 57.8307 35.894L57.8587 36.93C56.9907 37.0887 56.3701 37.168 55.9967 37.168C55.0727 37.168 54.4054 36.9673 53.9947 36.566C53.5934 36.1647 53.3927 35.544 53.3927 34.704V32.506C53.3927 31.694 53.5887 31.0733 53.9807 30.644C54.3821 30.2147 54.9794 30 55.7727 30ZM55.7727 30.994C55.4087 30.994 55.1194 31.1107 54.9047 31.344C54.6901 31.568 54.5827 31.8947 54.5827 32.324V32.996H56.9907V32.366C56.9907 31.918 56.8787 31.5773 56.6547 31.344C56.4401 31.1107 56.1461 30.994 55.7727 30.994ZM61.7545 30C62.1465 30 62.6178 30.056 63.1685 30.168L63.1405 31.176C62.6551 31.064 62.2118 31.008 61.8105 31.008C60.9705 31.008 60.5505 31.2787 60.5505 31.82V31.946C60.5505 32.114 60.5925 32.2493 60.6765 32.352C60.7698 32.4547 60.9331 32.562 61.1665 32.674L62.4825 33.29C63.2758 33.6633 63.6725 34.2093 63.6725 34.928V35.236C63.6631 35.88 63.4671 36.3653 63.0845 36.692C62.7111 37.0093 62.1185 37.168 61.3065 37.168C60.8865 37.168 60.2845 37.07 59.5005 36.874L59.5565 35.81C60.2565 36.0153 60.8305 36.118 61.2785 36.118C61.7358 36.118 62.0531 36.0573 62.2305 35.936C62.4078 35.8053 62.4965 35.5953 62.4965 35.306V35.166C62.4965 34.942 62.4498 34.7647 62.3565 34.634C62.2725 34.5033 62.1278 34.3913 61.9225 34.298L60.5645 33.696C60.1538 33.5093 59.8505 33.2853 59.6545 33.024C59.4678 32.7627 59.3745 32.4593 59.3745 32.114V31.918C59.3931 31.2833 59.5891 30.8073 59.9625 30.49C60.3451 30.1633 60.9425 30 61.7545 30Z" fill="#339933"/>
</g>
<path d="M57.8725 44.7751C58.3008 44.5768 58.6553 44.5141 58.9359 44.587C59.2164 44.6599 59.4265 44.847 59.5659 45.1483L59.6289 45.2844C59.7264 45.4949 59.7548 45.7088 59.7143 45.9259C59.672 46.1394 59.5572 46.3292 59.3696 46.4953L61.0564 47.7113L60.5391 47.9507L58.9576 46.8051C58.9302 46.8221 58.873 46.8508 58.7859 46.8912C58.6407 46.9584 58.4948 47.0193 58.3481 47.0739L59.069 48.6312L58.6061 48.8454L56.9352 45.2354C57.335 45.0327 57.6474 44.8793 57.8725 44.7751ZM58.0431 45.1722C57.9233 45.2276 57.7671 45.3043 57.5744 45.4023L58.1692 46.6873C58.3736 46.6148 58.5412 46.5482 58.6719 46.4877C59.1946 46.2458 59.3576 45.9124 59.1611 45.4877L59.1106 45.3788C59.0199 45.1828 58.8892 45.067 58.7184 45.0315C58.5477 44.9959 58.3226 45.0428 58.0431 45.1722ZM61.0333 44.4162C61.3455 44.2717 61.6052 44.2374 61.8123 44.3135C62.0213 44.3842 62.1964 44.572 62.3375 44.8769L63.1919 46.7228L62.7509 46.9269L62.5543 46.5022C62.495 46.9264 62.3328 47.1998 62.0678 47.3224C61.8573 47.4199 61.6549 47.4254 61.4606 47.339C61.27 47.251 61.1167 47.0817 61.0008 46.8312L60.9302 46.6788C60.8294 46.461 60.8207 46.2468 60.904 46.0364C60.9856 45.8223 61.1516 45.6573 61.4021 45.5413C61.54 45.4775 61.7379 45.4146 61.9957 45.3525L61.8571 45.0531C61.7848 44.897 61.6964 44.8012 61.5919 44.7659C61.491 44.7288 61.3661 44.7447 61.2173 44.8136C61.0431 44.8943 60.8107 45.0349 60.5201 45.2356L60.3361 44.8381C60.6521 44.6257 60.8845 44.485 61.0333 44.4162ZM61.6828 45.8478C61.5303 45.9183 61.4326 46.012 61.3897 46.1289C61.3468 46.2457 61.359 46.3767 61.4262 46.5219L61.4539 46.5818C61.5161 46.7161 61.5957 46.8071 61.6927 46.8548C61.7897 46.9024 61.8854 46.9044 61.9797 46.8607C62.0778 46.8154 62.1583 46.7274 62.2212 46.5969C62.2862 46.461 62.3261 46.2949 62.341 46.0985L62.1469 45.6792C61.9972 45.7177 61.8425 45.7738 61.6828 45.8478ZM63.1567 42.1441C63.2764 42.0886 63.3967 42.0484 63.5173 42.0234L63.6887 42.3937C63.5714 42.4259 63.4547 42.4689 63.3385 42.5227C63.226 42.5748 63.1539 42.6522 63.1221 42.7551C63.094 42.8563 63.1144 42.9812 63.1833 43.1301L63.3244 43.435L63.8689 43.183L64.0454 43.5641L63.5009 43.8161L64.5544 46.0922L64.0915 46.3064L63.038 44.0304L62.6569 44.2068L62.4805 43.8257L62.8616 43.6492L62.7331 43.3715C62.6057 43.0867 62.5781 42.8416 62.6506 42.6362C62.723 42.4308 62.8917 42.2667 63.1567 42.1441ZM65.0852 42.5407C65.3974 42.3962 65.657 42.3619 65.8641 42.438C66.0731 42.5087 66.2482 42.6965 66.3894 43.0015L67.2438 44.8473L66.8027 45.0515L66.6061 44.6267C66.5468 45.0509 66.3847 45.3243 66.1197 45.447C65.9091 45.5444 65.7067 45.5499 65.5125 45.4635C65.3218 45.3755 65.1686 45.2062 65.0526 44.9557L64.9821 44.8033C64.8812 44.5855 64.8725 44.3713 64.9558 44.1609C65.0374 43.9468 65.2035 43.7818 65.4539 43.6658C65.5919 43.602 65.7897 43.5391 66.0475 43.477L65.9089 43.1776C65.8367 43.0215 65.7483 42.9257 65.6437 42.8904C65.5428 42.8533 65.418 42.8693 65.2692 42.9381C65.0949 43.0188 64.8625 43.1594 64.5719 43.3601L64.3879 42.9626C64.7039 42.7502 64.9363 42.6096 65.0852 42.5407ZM65.7346 43.9723C65.5822 44.0429 65.4845 44.1366 65.4416 44.2534C65.3987 44.3702 65.4108 44.5012 65.478 44.6464L65.5058 44.7063C65.5679 44.8406 65.6475 44.9316 65.7445 44.9793C65.8415 45.0269 65.9372 45.0289 66.0316 44.9852C66.1296 44.9399 66.2101 44.8519 66.2731 44.7214C66.338 44.5855 66.3779 44.4194 66.3928 44.223L66.1987 43.8037C66.049 43.8422 65.8943 43.8984 65.7346 43.9723ZM67.5911 41.3808C67.896 41.2396 68.1669 41.2156 68.404 41.3086C68.641 41.4017 68.8326 41.6061 68.9787 41.9219L69.2383 42.4827L67.839 43.1305L67.9877 43.4517C68.0734 43.6369 68.1791 43.751 68.3049 43.7942C68.4326 43.832 68.5926 43.8064 68.785 43.7174C68.9738 43.63 69.1963 43.4917 69.4525 43.3026L69.6499 43.7005C69.3409 43.9185 69.1138 44.0611 68.9686 44.1283C68.6092 44.2946 68.3136 44.3367 68.0816 44.2545C67.8532 44.1707 67.6635 43.9654 67.5122 43.6387L67.1165 42.7839C66.9704 42.4681 66.9349 42.1914 67.01 41.9538C67.0888 41.7146 67.2825 41.5236 67.5911 41.3808ZM67.77 41.7674C67.6284 41.8329 67.5369 41.9303 67.4954 42.0597C67.4523 42.1855 67.4693 42.3319 67.5466 42.4989L67.6676 42.7602L68.6041 42.3267L68.4907 42.0817C68.4101 41.9075 68.3052 41.7951 68.176 41.7447C68.0505 41.6926 67.9152 41.7001 67.77 41.7674ZM69.1568 39.4461L70.8782 43.165L70.4154 43.3792L68.694 39.6603L69.1568 39.4461ZM72.8717 37.9117L73.0658 38.331L71.6501 38.9862L72.1718 40.1134L73.239 39.6194L73.4305 40.0332L72.3633 40.5272L73.1068 42.1334L72.644 42.3477L70.9932 38.7812L72.8717 37.9117ZM74.348 38.2531C74.6602 38.1086 74.9199 38.0744 75.1269 38.1504C75.336 38.2212 75.5111 38.409 75.6522 38.7139L76.5066 40.5598L76.0656 40.7639L75.869 40.3392C75.8097 40.7634 75.6475 41.0368 75.3825 41.1594C75.172 41.2569 74.9696 41.2624 74.7753 41.176C74.5847 41.0879 74.4314 40.9187 74.3155 40.6682L74.2449 40.5157C74.1441 40.2979 74.1353 40.0838 74.2186 39.8734C74.3003 39.6593 74.4663 39.4943 74.7168 39.3783C74.8547 39.3145 75.0526 39.2515 75.3104 39.1895L75.1718 38.89C75.0995 38.7339 75.0111 38.6382 74.9066 38.6029C74.8057 38.5658 74.6808 38.5817 74.532 38.6506C74.3578 38.7313 74.1254 38.8719 73.8347 39.0725L73.6508 38.6751C73.9668 38.4627 74.1992 38.322 74.348 38.2531ZM74.9975 39.6848C74.845 39.7553 74.7473 39.849 74.7044 39.9659C74.6615 40.0827 74.6737 40.2137 74.7409 40.3589L74.7686 40.4188C74.8308 40.5531 74.9104 40.6441 75.0074 40.6918C75.1044 40.7394 75.2001 40.7414 75.2944 40.6977C75.3924 40.6524 75.473 40.5644 75.5359 40.4339C75.6009 40.298 75.6408 40.1319 75.6557 39.9355L75.4616 39.5162C75.3119 39.5546 75.1572 39.6108 74.9975 39.6848ZM76.9138 37.0655C77.0772 36.9899 77.2732 36.9278 77.502 36.8792L77.6801 37.2926C77.4477 37.3429 77.2553 37.4033 77.1028 37.4739C76.9322 37.5529 76.8234 37.6605 76.7763 37.7969C76.7329 37.9316 76.7515 38.0861 76.8322 38.2603L77.2379 39.137C77.3219 39.3185 77.4312 39.4354 77.5656 39.4878C77.702 39.5348 77.8519 39.5206 78.0152 39.445C78.1168 39.3979 78.2033 39.3513 78.2744 39.3051C78.3456 39.259 78.4298 39.198 78.5269 39.1221L78.7269 39.5255C78.5273 39.6752 78.3512 39.7853 78.1988 39.8559C77.5454 40.1583 77.0658 39.9792 76.76 39.3185L76.387 38.5127C76.0812 37.852 76.2568 37.3696 76.9138 37.0655ZM78.7612 36.7195C78.8315 36.3476 78.9991 36.1003 79.2641 35.9776C79.4965 35.8701 79.7113 35.8676 79.9086 35.9702C80.1079 36.0675 80.2748 36.2613 80.4092 36.5517L81.2485 38.3649L80.7857 38.5791L79.9766 36.8313C79.8086 36.4683 79.6066 36.3414 79.3707 36.4506C79.2654 36.4993 79.1768 36.5888 79.1049 36.7191C79.0329 36.8494 78.989 37.0019 78.9729 37.1769L79.8273 39.0227L79.3645 39.2369L77.6431 35.518L78.106 35.3038L78.7612 36.7195ZM81.2189 35.1521L82.4488 37.8093L81.986 38.0235L80.7561 35.3664L81.2189 35.1521ZM80.4882 34.1879C80.5863 34.1425 80.6707 34.1298 80.7417 34.1499C80.8163 34.1682 80.8721 34.2173 80.9091 34.2972L80.9822 34.4551C81.0192 34.535 81.0205 34.6093 80.9862 34.678C80.9539 34.7415 80.8887 34.7959 80.7907 34.8413C80.6963 34.8849 80.6126 34.8994 80.5397 34.8847C80.4687 34.8647 80.4148 34.8147 80.3778 34.7348L80.3047 34.5769C80.2677 34.4971 80.2646 34.4236 80.2952 34.3565C80.3295 34.2878 80.3939 34.2315 80.4882 34.1879ZM83.1086 34.1981C83.3409 34.0906 83.5557 34.0881 83.7531 34.1907C83.9524 34.288 84.1193 34.4818 84.2537 34.7722L85.0929 36.5854L84.6301 36.7996L83.8211 35.0518C83.6531 34.6888 83.4511 34.5619 83.2151 34.6711C83.1099 34.7198 83.0213 34.8093 82.9493 34.9396C82.8774 35.0699 82.8334 35.2225 82.8174 35.3974L83.6718 37.2432L83.209 37.4574L81.9791 34.8003L82.4147 34.5987L82.5986 34.9961C82.6278 34.8019 82.6837 34.6372 82.7666 34.5019C82.853 34.3649 82.967 34.2636 83.1086 34.1981ZM85.4681 33.106C85.773 32.9648 86.0439 32.9408 86.281 33.0338C86.518 33.1269 86.7096 33.3313 86.8557 33.6471L87.1153 34.208L85.716 34.8557L85.8647 35.1769C85.9504 35.3621 86.0561 35.4762 86.1819 35.5194C86.3096 35.5572 86.4696 35.5316 86.662 35.4426C86.8508 35.3552 87.0733 35.217 87.3295 35.0278L87.5269 35.4257C87.2179 35.6437 86.9908 35.7863 86.8456 35.8535C86.4862 36.0198 86.1906 36.0619 85.9586 35.9798C85.7302 35.8959 85.5405 35.6906 85.3892 35.3639L84.9936 34.5091C84.8474 34.1933 84.8119 33.9166 84.887 33.679C84.9658 33.4398 85.1595 33.2488 85.4681 33.106ZM85.647 33.4926C85.5054 33.5581 85.4139 33.6556 85.3724 33.785C85.3293 33.9107 85.3463 34.0571 85.4236 34.2241L85.5446 34.4854L86.4811 34.0519L86.3677 33.8069C86.2871 33.6327 86.1822 33.5203 86.053 33.4699C85.9276 33.4178 85.7922 33.4254 85.647 33.4926ZM87.0338 31.1713L88.7552 34.8902L88.2924 35.1045L86.571 31.3855L87.0338 31.1713ZM88.2568 30.6052L89.9782 34.3241L89.5154 34.5384L87.794 30.8194L88.2568 30.6052ZM89.9713 31.1009L91.2012 33.7581L90.7384 33.9723L89.5085 31.3151L89.9713 31.1009ZM89.2406 30.1366C89.3386 30.0912 89.4231 30.0786 89.4941 30.0986C89.5687 30.117 89.6245 30.1661 89.6615 30.2459L89.7346 30.4038C89.7715 30.4837 89.7729 30.558 89.7386 30.6268C89.7063 30.6902 89.6411 30.7446 89.5431 30.79C89.4487 30.8337 89.365 30.8482 89.2921 30.8334C89.2211 30.8134 89.1672 30.7635 89.1302 30.6836L89.0571 30.5257C89.0201 30.4458 89.017 30.3724 89.0476 30.3053C89.0819 30.2365 89.1463 30.1803 89.2406 30.1366Z" fill="black"/>
<defs>
<filter id="filter0_d" x="0.726562" y="4" width="88.1797" height="41.168" filterUnits="userSpaceOnUse" color-interpolation-filters="sRGB">
<feFlood flood-opacity="0" result="BackgroundImageFix"/>
<feColorMatrix in="SourceAlpha" type="matrix" values="0 0 0 0 0 0 0 0 0 0 0 0 0 0 0 0 0 0 127 0"/>
<feOffset dy="4"/>
<feGaussianBlur stdDeviation="2"/>
<feColorMatrix type="matrix" values="0 0 0 0 0 0 0 0 0 0 0 0 0 0 0 0 0 0 0.25 0"/>
<feBlend mode="normal" in2="BackgroundImageFix" result="effect1_dropShadow"/>
<feBlend mode="normal" in="SourceGraphic" in2="effect1_dropShadow" result="shape"/>
</filter>
</defs>
</svg>
